<svg fill="none" role="img" viewBox="0 0 24 24" xmlns="http://www.w3.org/2000/svg"><title>Slack</title><path fill="#36C5F0" d="M6.35 14.2a2.35 2.35 0 1 1-2.35 2.35v-2.35h2.35Zm1.18 0a2.35 2.35 0 0 1 4.7 0v5.88a2.35 2.35 0 1 1-4.7 0V14.2Z"/><path fill="#2EB67D" d="M9.88 6.35A2.35 2.35 0 1 1 12.23 4v2.35H9.88Zm0 1.18a2.35 2.35 0 0 1 0 4.7H4a2.35 2.35 0 1 1 0-4.7h5.88Z"/><path fill="#ECB22E" d="M17.65 9.88A2.35 2.35 0 1 1 20 7.53v2.35h-2.35Zm-1.18 0a2.35 2.35 0 0 1-4.7 0V4a2.35 2.35 0 1 1 4.7 0v5.88Z"/><path fill="#E01E5A" d="M14.12 17.65A2.35 2.35 0 1 1 11.77 20v-2.35h2.35Zm0-1.18a2.35 2.35 0 1 1 0-4.7H20a2.35 2.35 0 1 1 0 4.7h-5.88Z"/></svg>
